<svg width="100" height="100" viewBox="0 0 100 100" fill="none" xmlns="http://www.w3.org/2000/svg">
<circle cx="50" cy="50" r="50" fill="#E80000"/>
<path d="M61.9999 42.9733C61.9732 42.9733 61.9332 42.9733 61.8932 42.9733C54.8399 42.2667 47.7999 42 40.8266 42.7067L38.1066 42.9733C37.5466 43.0267 37.0532 42.6267 36.9999 42.0667C36.9466 41.5067 37.3466 41.0267 37.8932 40.9733L40.6132 40.7067C47.7066 39.9867 54.8932 40.2667 62.0932 40.9733C62.6399 41.0267 63.0399 41.52 62.9866 42.0667C62.9466 42.5867 62.5066 42.9733 61.9999 42.9733Z" fill="white"/>
<path d="M45.3333 41.6267C45.2799 41.6267 45.2266 41.6267 45.1599 41.6133C44.6266 41.52 44.2533 41 44.3466 40.4667L44.6399 38.72C44.8533 37.44 45.1466 35.6667 48.2533 35.6667H51.7466C54.8666 35.6667 55.1599 37.5067 55.3599 38.7333L55.6533 40.4667C55.7466 41.0133 55.3733 41.5333 54.8399 41.6133C54.2933 41.7067 53.7733 41.3333 53.6933 40.8L53.3999 39.0667C53.2133 37.9067 53.1733 37.68 51.7599 37.68H48.2666C46.8533 37.68 46.8266 37.8667 46.6266 39.0533L46.3199 40.7867C46.2399 41.28 45.8133 41.6267 45.3333 41.6267Z" fill="white"/>
<path d="M54.2799 64.3333H45.7199C41.0666 64.3333 40.8799 61.76 40.7333 59.68L39.8666 46.2533C39.8266 45.7067 40.2533 45.2267 40.7999 45.1867C41.3599 45.16 41.8266 45.5733 41.8666 46.12L42.7333 59.5467C42.8799 61.5733 42.9333 62.3333 45.7199 62.3333H54.2799C57.0799 62.3333 57.1333 61.5733 57.2666 59.5467L58.1333 46.12C58.1733 45.5733 58.6533 45.16 59.1999 45.1867C59.7466 45.2267 60.1733 45.6933 60.1333 46.2533L59.2666 59.68C59.1199 61.76 58.9333 64.3333 54.2799 64.3333Z" fill="white"/>
<path d="M52.2134 57H47.7734C47.2268 57 46.7734 56.5467 46.7734 56C46.7734 55.4533 47.2268 55 47.7734 55H52.2134C52.7601 55 53.2134 55.4533 53.2134 56C53.2134 56.5467 52.7601 57 52.2134 57Z" fill="white"/>
<path d="M53.3334 51.6667H46.6667C46.1201 51.6667 45.6667 51.2133 45.6667 50.6667C45.6667 50.12 46.1201 49.6667 46.6667 49.6667H53.3334C53.8801 49.6667 54.3334 50.12 54.3334 50.6667C54.3334 51.2133 53.8801 51.6667 53.3334 51.6667Z" fill="white"/>
</svg>
