<svg width="19" height="19" viewBox="0 0 19 19" fill="none" xmlns="http://www.w3.org/2000/svg">
<path d="M13.474 3.408L15.592 5.525L13.474 3.408ZM14.836 1.543L9.109 7.27C8.81309 7.5655 8.61128 7.94199 8.529 8.352L8 11L10.648 10.47C11.058 10.388 11.434 10.187 11.73 9.891L17.457 4.164C17.6291 3.99191 17.7656 3.7876 17.8588 3.56274C17.9519 3.33788 17.9998 3.09688 17.9998 2.8535C17.9998 2.61012 17.9519 2.36912 17.8588 2.14426C17.7656 1.91941 17.6291 1.7151 17.457 1.543C17.2849 1.37091 17.0806 1.23439 16.8557 1.14125C16.6309 1.04811 16.3899 1.00018 16.1465 1.00018C15.9031 1.00018 15.6621 1.04811 15.4373 1.14125C15.2124 1.23439 15.0081 1.37091 14.836 1.543V1.543Z" stroke="black" stroke-linecap="round" stroke-linejoin="round"/>
<path d="M16 13V16C16 16.5304 15.7893 17.0391 15.4142 17.4142C15.0391 17.7893 14.5304 18 14 18H3C2.46957 18 1.96086 17.7893 1.58579 17.4142C1.21071 17.0391 1 16.5304 1 16V5C1 4.46957 1.21071 3.96086 1.58579 3.58579C1.96086 3.21071 2.46957 3 3 3H6" stroke="black" stroke-linecap="round" stroke-linejoin="round"/>
</svg>
