<svg width="80" height="80" viewBox="0 0 80 80" fill="none" xmlns="http://www.w3.org/2000/svg">
<circle cx="40" cy="40" r="40" fill="#F0F0FF"/>
<path d="M45.5 33.75V32.25C45.5 32.1125 45.3875 32 45.25 32H33.25C33.1125 32 33 32.1125 33 32.25V33.75C33 33.8875 33.1125 34 33.25 34H45.25C45.3875 34 45.5 33.8875 45.5 33.75ZM33.25 36.5C33.1125 36.5 33 36.6125 33 36.75V38.25C33 38.3875 33.1125 38.5 33.25 38.5H39C39.1375 38.5 39.25 38.3875 39.25 38.25V36.75C39.25 36.6125 39.1375 36.5 39 36.5H33.25ZM45 40.125C41.2719 40.125 38.25 43.1469 38.25 46.875C38.25 50.6031 41.2719 53.625 45 53.625C48.7281 53.625 51.75 50.6031 51.75 46.875C51.75 43.1469 48.7281 40.125 45 40.125ZM48.3594 50.2344C47.4625 51.1313 46.2687 51.625 45 51.625C43.7312 51.625 42.5375 51.1313 41.6406 50.2344C40.7437 49.3375 40.25 48.1437 40.25 46.875C40.25 45.6063 40.7437 44.4125 41.6406 43.5156C42.5375 42.6187 43.7312 42.125 45 42.125C46.2687 42.125 47.4625 42.6187 48.3594 43.5156C49.2563 44.4125 49.75 45.6063 49.75 46.875C49.75 48.1437 49.2563 49.3375 48.3594 50.2344ZM44 49.375C44 49.6402 44.1054 49.8946 44.2929 50.0821C44.4804 50.2696 44.7348 50.375 45 50.375C45.2652 50.375 45.5196 50.2696 45.7071 50.0821C45.8946 49.8946 46 49.6402 46 49.375C46 49.1098 45.8946 48.8554 45.7071 48.6679C45.5196 48.4804 45.2652 48.375 45 48.375C44.7348 48.375 44.4804 48.4804 44.2929 48.6679C44.1054 48.8554 44 49.1098 44 49.375ZM44.375 47.375H45.625C45.7625 47.375 45.875 47.2625 45.875 47.125V43.625C45.875 43.4875 45.7625 43.375 45.625 43.375H44.375C44.2375 43.375 44.125 43.4875 44.125 43.625V47.125C44.125 47.2625 44.2375 47.375 44.375 47.375ZM37.75 50.625H30.5V28.625H48V39.375C48 39.5125 48.1125 39.625 48.25 39.625H50C50.1375 39.625 50.25 39.5125 50.25 39.375V27.375C50.25 26.8219 49.8031 26.375 49.25 26.375H29.25C28.6969 26.375 28.25 26.8219 28.25 27.375V51.875C28.25 52.4281 28.6969 52.875 29.25 52.875H37.75C37.8875 52.875 38 52.7625 38 52.625V50.875C38 50.7375 37.8875 50.625 37.75 50.625Z" fill="#0101C8"/>
</svg>
