<svg width="20" height="20" viewBox="0 0 20 20" fill="none" xmlns="http://www.w3.org/2000/svg">
<path d="M15 8.95829C14.6583 8.95829 14.375 8.67496 14.375 8.33329V6.66663C14.375 4.04163 13.6333 2.29163 10 2.29163C6.36667 2.29163 5.625 4.04163 5.625 6.66663V8.33329C5.625 8.67496 5.34167 8.95829 5 8.95829C4.65833 8.95829 4.375 8.67496 4.375 8.33329V6.66663C4.375 4.24996 4.95833 1.04163 10 1.04163C15.0417 1.04163 15.625 4.24996 15.625 6.66663V8.33329C15.625 8.67496 15.3417 8.95829 15 8.95829Z" fill="#292D32"/>
<path d="M10.0001 16.0417C8.50841 16.0417 7.29175 14.825 7.29175 13.3333C7.29175 11.8417 8.50841 10.625 10.0001 10.625C11.4917 10.625 12.7084 11.8417 12.7084 13.3333C12.7084 14.825 11.4917 16.0417 10.0001 16.0417ZM10.0001 11.875C9.20008 11.875 8.54175 12.5333 8.54175 13.3333C8.54175 14.1333 9.20008 14.7917 10.0001 14.7917C10.8001 14.7917 11.4584 14.1333 11.4584 13.3333C11.4584 12.5333 10.8001 11.875 10.0001 11.875Z" fill="#292D32"/>
<path d="M14.1667 18.9584H5.83341C2.15841 18.9584 1.04175 17.8417 1.04175 14.1667V12.5C1.04175 8.82504 2.15841 7.70837 5.83341 7.70837H14.1667C17.8417 7.70837 18.9584 8.82504 18.9584 12.5V14.1667C18.9584 17.8417 17.8417 18.9584 14.1667 18.9584ZM5.83341 8.95837C2.85008 8.95837 2.29175 9.52504 2.29175 12.5V14.1667C2.29175 17.1417 2.85008 17.7084 5.83341 17.7084H14.1667C17.1501 17.7084 17.7084 17.1417 17.7084 14.1667V12.5C17.7084 9.52504 17.1501 8.95837 14.1667 8.95837H5.83341Z" fill="#292D32"/>
</svg>
