<svg width="80" height="80" viewBox="0 0 80 80" fill="none" xmlns="http://www.w3.org/2000/svg">
<circle cx="40" cy="40" r="40" fill="#F0FFF4"/>
<path d="M49.5 50.2917C50.8142 50.2917 51.875 49.2308 51.875 47.9167C51.875 46.6025 50.8142 45.5417 49.5 45.5417C48.1859 45.5417 47.125 46.6025 47.125 47.9167C47.125 49.2308 48.1859 50.2917 49.5 50.2917ZM51.875 36.0417H47.9167V40H54.9784L51.875 36.0417ZM30.5 50.2917C31.8142 50.2917 32.875 49.2308 32.875 47.9167C32.875 46.6025 31.8142 45.5417 30.5 45.5417C29.1859 45.5417 28.125 46.6025 28.125 47.9167C28.125 49.2308 29.1859 50.2917 30.5 50.2917ZM52.6667 33.6667L57.4167 40V47.9167H54.25C54.25 50.545 52.1284 52.6667 49.5 52.6667C46.8717 52.6667 44.75 50.545 44.75 47.9167H35.25C35.25 50.545 33.1284 52.6667 30.5 52.6667C27.8717 52.6667 25.75 50.545 25.75 47.9167H22.5834V30.5C22.5834 28.7425 23.9925 27.3333 25.75 27.3333H47.9167V33.6667H52.6667ZM25.75 30.5V44.75H26.9534C27.8242 43.7842 29.0909 43.1667 30.5 43.1667C31.9092 43.1667 33.1759 43.7842 34.0467 44.75H44.75V30.5H25.75ZM36.8334 32.0833L42.375 37.625L36.8334 43.1667V39.2083H28.9167V36.0417H36.8334V32.0833Z" fill="#11AD20"/>
</svg>
