<svg width="80" height="80" viewBox="0 0 80 80" fill="none" xmlns="http://www.w3.org/2000/svg">
<circle cx="40" cy="40" r="40" fill="#F0FFF4"/>
<path d="M32.4002 29.55C31.6443 29.55 30.9194 29.8502 30.3849 30.3847C29.8505 30.9192 29.5502 31.6441 29.5502 32.4V35.725C29.5502 36.1029 29.4001 36.4653 29.1328 36.7326C28.8656 36.9998 28.5031 37.15 28.1252 37.15C27.7473 37.15 27.3848 36.9998 27.1176 36.7326C26.8503 36.4653 26.7002 36.1029 26.7002 35.725V32.4C26.7002 30.8882 27.3007 29.4384 28.3697 28.3694C29.4386 27.3005 30.8885 26.7 32.4002 26.7H35.7252C36.1031 26.7 36.4656 26.8501 36.7328 27.1173C37.0001 27.3846 37.1502 27.747 37.1502 28.125C37.1502 28.5029 37.0001 28.8653 36.7328 29.1326C36.4656 29.3998 36.1031 29.55 35.7252 29.55H32.4002ZM32.4002 36.2C32.4002 35.1921 32.8006 34.2256 33.5132 33.5129C34.2258 32.8003 35.1924 32.4 36.2002 32.4H43.8002C44.808 32.4 45.7746 32.8003 46.4872 33.5129C47.1998 34.2256 47.6002 35.1921 47.6002 36.2H32.4002ZM32.4002 38.1V43.8C32.4002 44.8078 32.8006 45.7743 33.5132 46.487C34.2258 47.1996 35.1924 47.6 36.2002 47.6H43.8002C44.808 47.6 45.7746 47.1996 46.4872 46.487C47.1998 45.7743 47.6002 44.8078 47.6002 43.8V38.1H32.4002ZM44.2752 26.7C43.8973 26.7 43.5348 26.8501 43.2676 27.1173C43.0003 27.3846 42.8502 27.747 42.8502 28.125C42.8502 28.5029 43.0003 28.8653 43.2676 29.1326C43.5348 29.3998 43.8973 29.55 44.2752 29.55H47.6002C48.3561 29.55 49.081 29.8502 49.6154 30.3847C50.1499 30.9192 50.4502 31.6441 50.4502 32.4V35.725C50.4502 36.1029 50.6003 36.4653 50.8676 36.7326C51.1348 36.9998 51.4973 37.15 51.8752 37.15C52.2531 37.15 52.6156 36.9998 52.8828 36.7326C53.1501 36.4653 53.3002 36.1029 53.3002 35.725V32.4C53.3002 30.8882 52.6997 29.4384 51.6307 28.3694C50.5617 27.3005 49.1119 26.7 47.6002 26.7H44.2752ZM28.1252 42.85C28.5031 42.85 28.8656 43.0001 29.1328 43.2673C29.4001 43.5346 29.5502 43.897 29.5502 44.275V47.6C29.5502 48.3558 29.8505 49.0807 30.3849 49.6152C30.9194 50.1497 31.6443 50.45 32.4002 50.45H35.7252C36.1031 50.45 36.4656 50.6001 36.7328 50.8673C37.0001 51.1346 37.1502 51.497 37.1502 51.875C37.1502 52.2529 37.0001 52.6153 36.7328 52.8826C36.4656 53.1498 36.1031 53.3 35.7252 53.3H32.4002C30.8885 53.3 29.4386 52.6994 28.3697 51.6305C27.3007 50.5615 26.7002 49.1117 26.7002 47.6V44.275C26.7002 43.897 26.8503 43.5346 27.1176 43.2673C27.3848 43.0001 27.7473 42.85 28.1252 42.85ZM53.3002 44.275C53.3002 43.897 53.1501 43.5346 52.8828 43.2673C52.6156 43.0001 52.2531 42.85 51.8752 42.85C51.4973 42.85 51.1348 43.0001 50.8676 43.2673C50.6003 43.5346 50.4502 43.897 50.4502 44.275V47.6C50.4502 48.3558 50.1499 49.0807 49.6154 49.6152C49.081 50.1497 48.3561 50.45 47.6002 50.45H44.2752C43.8973 50.45 43.5348 50.6001 43.2676 50.8673C43.0003 51.1346 42.8502 51.497 42.8502 51.875C42.8502 52.2529 43.0003 52.6153 43.2676 52.8826C43.5348 53.1498 43.8973 53.3 44.2752 53.3H47.6002C49.1119 53.3 50.5617 52.6994 51.6307 51.6305C52.6997 50.5615 53.3002 49.1117 53.3002 47.6V44.275Z" fill="#11AD20"/>
</svg>
