<svg width="80" height="80" viewBox="0 0 80 80" fill="none" xmlns="http://www.w3.org/2000/svg">
<circle cx="40" cy="40" r="40" fill="#FFF0F0"/>
<path d="M32.4 29.55C31.6441 29.55 30.9192 29.8503 30.3848 30.3848C29.8503 30.9192 29.55 31.6441 29.55 32.4V35.725C29.55 36.1029 29.3999 36.4654 29.1326 36.7326C28.8654 36.9999 28.5029 37.15 28.125 37.15C27.7471 37.15 27.3846 36.9999 27.1174 36.7326C26.8501 36.4654 26.7 36.1029 26.7 35.725V32.4C26.7 30.8883 27.3005 29.4385 28.3695 28.3695C29.4385 27.3005 30.8883 26.7 32.4 26.7H35.725C36.1029 26.7 36.4654 26.8501 36.7326 27.1174C36.9999 27.3846 37.15 27.7471 37.15 28.125C37.15 28.5029 36.9999 28.8654 36.7326 29.1326C36.4654 29.3999 36.1029 29.55 35.725 29.55H32.4ZM32.4 36.2C32.4 35.1922 32.8004 34.2256 33.513 33.513C34.2256 32.8004 35.1922 32.4 36.2 32.4H43.8C44.8078 32.4 45.7744 32.8004 46.487 33.513C47.1997 34.2256 47.6 35.1922 47.6 36.2H32.4ZM32.4 38.1V43.8C32.4 44.8078 32.8004 45.7744 33.513 46.487C34.2256 47.1997 35.1922 47.6 36.2 47.6H43.8C44.8078 47.6 45.7744 47.1997 46.487 46.487C47.1997 45.7744 47.6 44.8078 47.6 43.8V38.1H32.4ZM44.275 26.7C43.8971 26.7 43.5346 26.8501 43.2674 27.1174C43.0001 27.3846 42.85 27.7471 42.85 28.125C42.85 28.5029 43.0001 28.8654 43.2674 29.1326C43.5346 29.3999 43.8971 29.55 44.275 29.55H47.6C48.3559 29.55 49.0808 29.8503 49.6153 30.3848C50.1497 30.9192 50.45 31.6441 50.45 32.4V35.725C50.45 36.1029 50.6001 36.4654 50.8674 36.7326C51.1346 36.9999 51.4971 37.15 51.875 37.15C52.2529 37.15 52.6154 36.9999 52.8826 36.7326C53.1499 36.4654 53.3 36.1029 53.3 35.725V32.4C53.3 30.8883 52.6995 29.4385 51.6305 28.3695C50.5616 27.3005 49.1117 26.7 47.6 26.7H44.275ZM28.125 42.85C28.5029 42.85 28.8654 43.0001 29.1326 43.2674C29.3999 43.5346 29.55 43.8971 29.55 44.275V47.6C29.55 48.3559 29.8503 49.0808 30.3848 49.6153C30.9192 50.1497 31.6441 50.45 32.4 50.45H35.725C36.1029 50.45 36.4654 50.6001 36.7326 50.8674C36.9999 51.1346 37.15 51.4971 37.15 51.875C37.15 52.2529 36.9999 52.6154 36.7326 52.8826C36.4654 53.1499 36.1029 53.3 35.725 53.3H32.4C30.8883 53.3 29.4385 52.6995 28.3695 51.6305C27.3005 50.5616 26.7 49.1117 26.7 47.6V44.275C26.7 43.8971 26.8501 43.5346 27.1174 43.2674C27.3846 43.0001 27.7471 42.85 28.125 42.85ZM53.3 44.275C53.3 43.8971 53.1499 43.5346 52.8826 43.2674C52.6154 43.0001 52.2529 42.85 51.875 42.85C51.4971 42.85 51.1346 43.0001 50.8674 43.2674C50.6001 43.5346 50.45 43.8971 50.45 44.275V47.6C50.45 48.3559 50.1497 49.0808 49.6153 49.6153C49.0808 50.1497 48.3559 50.45 47.6 50.45H44.275C43.8971 50.45 43.5346 50.6001 43.2674 50.8674C43.0001 51.1346 42.85 51.4971 42.85 51.875C42.85 52.2529 43.0001 52.6154 43.2674 52.8826C43.5346 53.1499 43.8971 53.3 44.275 53.3H47.6C49.1117 53.3 50.5616 52.6995 51.6305 51.6305C52.6995 50.5616 53.3 49.1117 53.3 47.6V44.275Z" fill="#FF2424"/>
</svg>
