<svg width="606" height="460" viewBox="0 0 606 460" fill="none" xmlns="http://www.w3.org/2000/svg">
<g clip-path="url(#clip0_4_115)">
<path d="M147.855 339.909V455.675C147.855 458.398 145.663 460.593 142.944 460.593H4.91319C2.19611 460.593 -7.62939e-05 458.398 -7.62939e-05 455.675V339.909C-7.62939e-05 337.184 2.19611 334.986 4.91319 334.986H142.944C145.663 335.075 147.855 337.184 147.855 339.909Z" fill="#78ADB9"/>
<path d="M118.142 243.51V331.256C118.142 333.321 116.48 334.986 114.42 334.986H9.7914C7.73598 334.986 6.07478 333.321 6.07478 331.256V243.51C6.07478 241.444 7.73598 239.779 9.7914 239.779H114.42C116.48 239.845 118.142 241.444 118.142 243.51Z" fill="#5B8D98"/>
<path d="M128.075 169.829V236.926C128.075 238.506 126.805 239.78 125.229 239.78H45.2247C43.6493 239.78 42.3781 238.506 42.3781 236.926V169.829C42.3781 168.249 43.6493 166.976 45.2247 166.976H125.229C126.805 167.027 128.075 168.249 128.075 169.829Z" fill="#4D7B86"/>
<path d="M24.6593 239.621H28.1788V460.459H24.6593V239.621Z" fill="#5A3800"/>
<path d="M105.609 166.95H109.128V460.459H105.609V166.95Z" fill="#5A3800"/>
<path d="M52.8155 166.95H56.3351V334.871H52.8155V166.95Z" fill="#5A3800"/>
<path d="M78.0077 250.91H100.89C102.057 250.91 103.002 251.858 103.002 253.027V267.794C103.002 268.963 102.057 269.91 100.89 269.91H78.0077C76.8414 269.91 75.896 268.963 75.896 267.794V253.027C75.896 251.858 76.8414 250.91 78.0077 250.91Z" fill="#FFF1DF"/>
<path d="M79.797 254.88H99.107C99.4117 254.88 99.6587 255.128 99.6587 255.433C99.6587 255.739 99.4117 255.986 99.107 255.986H79.797C79.4923 255.986 79.2453 255.739 79.2453 255.433C79.2453 255.128 79.4923 254.88 79.797 254.88Z" fill="#F38900"/>
<path d="M79.797 258.199H99.107C99.4117 258.199 99.6587 258.446 99.6587 258.752C99.6587 259.057 99.4117 259.305 99.107 259.305H79.797C79.4923 259.305 79.2453 259.057 79.2453 258.752C79.2453 258.446 79.4923 258.199 79.797 258.199Z" fill="#F38900"/>
<path d="M79.797 261.517H99.107C99.4117 261.517 99.6587 261.764 99.6587 262.07C99.6587 262.375 99.4117 262.623 99.107 262.623H79.797C79.4923 262.623 79.2453 262.375 79.2453 262.07C79.2453 261.764 79.4923 261.517 79.797 261.517Z" fill="#F38900"/>
<path d="M79.797 264.834H99.107C99.4117 264.834 99.6587 265.081 99.6587 265.387C99.6587 265.692 99.4117 265.94 99.107 265.94H79.797C79.4923 265.94 79.2453 265.692 79.2453 265.387C79.2453 265.081 79.4923 264.834 79.797 264.834Z" fill="#F38900"/>
<path d="M86.2087 171.238H102.073C102.851 171.238 103.481 171.87 103.481 172.649V182.921C103.481 183.7 102.851 184.332 102.073 184.332H86.2087C85.4312 184.332 84.8009 183.7 84.8009 182.921V172.649C84.8009 171.87 85.4312 171.238 86.2087 171.238Z" fill="#FFF1DF"/>
<path d="M88.4781 174.543H99.7977C99.9763 174.543 100.121 174.688 100.121 174.867C100.121 175.046 99.9763 175.191 99.7977 175.191H88.4781C88.2995 175.191 88.1546 175.046 88.1546 174.867C88.1546 174.688 88.2995 174.543 88.4781 174.543Z" fill="#F38900"/>
<path d="M88.4781 176.487H99.7977C99.9763 176.487 100.121 176.633 100.121 176.812C100.121 176.991 99.9763 177.136 99.7977 177.136H88.4781C88.2995 177.136 88.1546 176.991 88.1546 176.812C88.1546 176.633 88.2995 176.487 88.4781 176.487Z" fill="#F38900"/>
<path d="M88.4781 178.433H99.7977C99.9763 178.433 100.121 178.578 100.121 178.757C100.121 178.936 99.9763 179.081 99.7977 179.081H88.4781C88.2995 179.081 88.1546 178.936 88.1546 178.757C88.1546 178.578 88.2995 178.433 88.4781 178.433Z" fill="#F38900"/>
<path d="M88.4781 180.377H99.7977C99.9763 180.377 100.121 180.522 100.121 180.701C100.121 180.88 99.9763 181.025 99.7977 181.025H88.4781C88.2995 181.025 88.1546 180.88 88.1546 180.701C88.1546 180.522 88.2995 180.377 88.4781 180.377Z" fill="#F38900"/>
<path d="M69.4387 351.048H97.5032C99.0582 351.048 100.319 352.311 100.319 353.87V371.844C100.319 373.403 99.0582 374.666 97.5032 374.666H69.4387C67.8837 374.666 66.6231 373.403 66.6231 371.844V353.87C66.6231 352.311 67.8837 351.048 69.4387 351.048Z" fill="#FFF1DF"/>
<path d="M71.1503 355.802H95.7871C96.1758 355.802 96.491 356.117 96.491 356.507C96.491 356.897 96.1758 357.213 95.7871 357.213H71.1503C70.7615 357.213 70.4463 356.897 70.4463 356.507C70.4463 356.117 70.7615 355.802 71.1503 355.802Z" fill="#F38900"/>
<path d="M71.1503 360.035H95.7871C96.1758 360.035 96.491 360.351 96.491 360.74C96.491 361.13 96.1758 361.446 95.7871 361.446H71.1503C70.7615 361.446 70.4463 361.13 70.4463 360.74C70.4463 360.351 70.7615 360.035 71.1503 360.035Z" fill="#F38900"/>
<path d="M71.1503 364.268H95.7871C96.1758 364.268 96.491 364.584 96.491 364.974C96.491 365.363 96.1758 365.679 95.7871 365.679H71.1503C70.7615 365.679 70.4463 365.363 70.4463 364.974C70.4463 364.584 70.7615 364.268 71.1503 364.268Z" fill="#F38900"/>
<path d="M71.1503 368.502H95.7871C96.1758 368.502 96.491 368.817 96.491 369.207C96.491 369.597 96.1758 369.913 95.7871 369.913H71.1503C70.7615 369.913 70.4463 369.597 70.4463 369.207C70.4463 368.817 70.7615 368.502 71.1503 368.502Z" fill="#F38900"/>
<path d="M294.972 339.909V455.675C294.972 458.398 292.779 460.593 290.061 460.593H152.029C149.31 460.593 147.118 458.398 147.118 455.675V339.909C147.118 337.184 149.31 334.986 152.029 334.986H290.061C292.779 335.075 294.972 337.184 294.972 339.909Z" fill="#72A4AF"/>
<path d="M265.259 243.51V331.256C265.259 333.321 263.597 334.986 261.537 334.986H156.911C154.851 334.986 153.189 333.321 153.189 331.256V243.51C153.189 241.444 154.851 239.779 156.911 239.779H261.537C263.597 239.845 265.259 241.444 265.259 243.51Z" fill="#78ADB9"/>
<path d="M275.192 169.829V236.926C275.192 238.506 273.922 239.78 272.346 239.78H192.342C190.766 239.78 189.495 238.506 189.495 236.926V169.829C189.495 168.249 190.766 166.976 192.342 166.976H272.346C273.922 167.027 275.192 168.249 275.192 169.829Z" fill="#5B8D98"/>
<path d="M171.776 239.621H175.296V460.459H171.776V239.621Z" fill="#5A3800"/>
<path d="M252.726 166.95H256.245V460.459H252.726V166.95Z" fill="#5A3800"/>
<path d="M199.933 166.95H203.452V334.871H199.933V166.95Z" fill="#5A3800"/>
<path d="M225.125 250.91H248.007C249.174 250.91 250.119 251.858 250.119 253.027V267.794C250.119 268.963 249.174 269.91 248.007 269.91H225.125C223.958 269.91 223.013 268.963 223.013 267.794V253.027C223.013 251.858 223.958 250.91 225.125 250.91Z" fill="#FFF1DF"/>
<path d="M226.914 254.88H246.224C246.528 254.88 246.776 255.128 246.776 255.433C246.776 255.739 246.528 255.986 246.224 255.986H226.914C226.609 255.986 226.362 255.739 226.362 255.433C226.362 255.128 226.609 254.88 226.914 254.88Z" fill="#F38900"/>
<path d="M226.914 258.199H246.224C246.528 258.199 246.776 258.446 246.776 258.752C246.776 259.057 246.528 259.305 246.224 259.305H226.914C226.609 259.305 226.362 259.057 226.362 258.752C226.362 258.446 226.609 258.199 226.914 258.199Z" fill="#F38900"/>
<path d="M226.914 261.517H246.224C246.528 261.517 246.776 261.764 246.776 262.07C246.776 262.375 246.528 262.623 246.224 262.623H226.914C226.609 262.623 226.362 262.375 226.362 262.07C226.362 261.764 226.609 261.517 226.914 261.517Z" fill="#F38900"/>
<path d="M226.914 264.834H246.224C246.528 264.834 246.776 265.081 246.776 265.387C246.776 265.692 246.528 265.94 246.224 265.94H226.914C226.609 265.94 226.362 265.692 226.362 265.387C226.362 265.081 226.609 264.834 226.914 264.834Z" fill="#F38900"/>
<path d="M233.326 171.238H249.19C249.967 171.238 250.598 171.87 250.598 172.649V182.921C250.598 183.7 249.967 184.332 249.19 184.332H233.326C232.548 184.332 231.918 183.7 231.918 182.921V172.649C231.918 171.87 232.548 171.238 233.326 171.238Z" fill="#FFF1DF"/>
<path d="M235.595 174.543H246.915C247.093 174.543 247.238 174.688 247.238 174.867C247.238 175.046 247.093 175.191 246.915 175.191H235.595C235.416 175.191 235.272 175.046 235.272 174.867C235.272 174.688 235.416 174.543 235.595 174.543Z" fill="#F38900"/>
<path d="M235.595 176.487H246.915C247.093 176.487 247.238 176.633 247.238 176.812C247.238 176.991 247.093 177.136 246.915 177.136H235.595C235.416 177.136 235.272 176.991 235.272 176.812C235.272 176.633 235.416 176.487 235.595 176.487Z" fill="#F38900"/>
<path d="M235.595 178.433H246.915C247.093 178.433 247.238 178.578 247.238 178.757C247.238 178.936 247.093 179.081 246.915 179.081H235.595C235.416 179.081 235.272 178.936 235.272 178.757C235.272 178.578 235.416 178.433 235.595 178.433Z" fill="#F38900"/>
<path d="M235.595 180.377H246.915C247.093 180.377 247.238 180.522 247.238 180.701C247.238 180.88 247.093 181.025 246.915 181.025H235.595C235.416 181.025 235.272 180.88 235.272 180.701C235.272 180.522 235.416 180.377 235.595 180.377Z" fill="#F38900"/>
<path d="M216.556 351.048H244.62C246.175 351.048 247.436 352.311 247.436 353.87V371.844C247.436 373.403 246.175 374.666 244.62 374.666H216.556C215.001 374.666 213.74 373.403 213.74 371.844V353.87C213.74 352.311 215.001 351.048 216.556 351.048Z" fill="#FFF1DF"/>
<path d="M218.267 355.802H242.904C243.293 355.802 243.608 356.117 243.608 356.507C243.608 356.897 243.293 357.213 242.904 357.213H218.267C217.878 357.213 217.563 356.897 217.563 356.507C217.563 356.117 217.878 355.802 218.267 355.802Z" fill="#F38900"/>
<path d="M218.267 360.035H242.904C243.293 360.035 243.608 360.351 243.608 360.74C243.608 361.13 243.293 361.446 242.904 361.446H218.267C217.878 361.446 217.563 361.13 217.563 360.74C217.563 360.351 217.878 360.035 218.267 360.035Z" fill="#F38900"/>
<path d="M218.267 364.268H242.904C243.293 364.268 243.608 364.584 243.608 364.974C243.608 365.363 243.293 365.679 242.904 365.679H218.267C217.878 365.679 217.563 365.363 217.563 364.974C217.563 364.584 217.878 364.268 218.267 364.268Z" fill="#F38900"/>
<path d="M218.267 368.502H242.904C243.293 368.502 243.608 368.817 243.608 369.207C243.608 369.597 243.293 369.913 242.904 369.913H218.267C217.878 369.913 217.563 369.597 217.563 369.207C217.563 368.817 217.878 368.502 218.267 368.502Z" fill="#F38900"/>
<path d="M334.652 144.115C371.537 90.7754 469.802 113.424 481.769 140.234C479.305 195.385 474.237 307.379 473.674 314.153C473.111 320.926 373.953 323.795 324.445 324.383L334.652 144.115Z" fill="#105DD0" stroke="black"/>
<path d="M286.434 652.816L327.965 303.216L431.088 298.983C400.233 412.694 332.54 652.816 327.965 665.869C325.515 672.861 286.434 661.988 286.434 652.816Z" fill="#C4573A" stroke="black"/>
<path d="M437.423 531.461C417.151 505.497 372.898 375.77 353.306 314.152L470.858 304.98C475.785 347.665 485.64 435.013 485.64 442.915C485.64 452.792 542.305 605.544 543.713 611.188C544.839 615.704 516.737 639.41 509.926 629.885C494.206 607.896 457.696 557.426 437.423 531.461Z" fill="#C4573A" stroke="black"/>
<path fill-rule="evenodd" clip-rule="evenodd" d="M208.16 82.8132C212.551 84.0959 215.862 89.312 214.992 97.5098L215.692 97.5846C216.582 89.202 213.205 83.5526 208.357 82.1359C203.507 80.7198 197.471 83.6218 193.209 91.7384L193.832 92.0672C198.017 84.0966 203.771 81.5312 208.16 82.8132Z" fill="#C4573A"/>
<path d="M168.178 87.3167C194.926 86.1878 226.484 100.957 238.92 108.483L204.781 213.963C196.615 201.828 157.267 184.918 138.613 177.98C144.714 160.812 159.168 118.643 168.178 87.3167Z" fill="#C4573A" stroke="black"/>
<path d="M138.613 166.339C156.915 153.286 170.289 118.362 173.105 98.6062C194.38 98.3395 217.958 108.332 228.714 114.198C220.619 139.222 203.936 191.457 201.965 200.205C198.446 191.386 144.245 166.339 138.613 166.339Z" fill="#FFFFFE" stroke="black"/>
<path fill-rule="evenodd" clip-rule="evenodd" d="M200.5 116.029C208.847 119.085 216.766 123.027 221.503 125.723L221.851 125.11C217.085 122.397 209.131 118.437 200.742 115.367C192.369 112.301 183.5 110.098 176.933 110.956L177.024 111.655C183.409 110.821 192.138 112.968 200.5 116.029Z" fill="black"/>
<path fill-rule="evenodd" clip-rule="evenodd" d="M196.629 128.561C204.976 131.616 212.894 135.559 217.631 138.255L217.979 137.641C213.214 134.929 205.26 130.969 196.87 127.898C188.497 124.833 179.629 122.629 173.061 123.487L173.153 124.187C179.538 123.353 188.266 125.5 196.629 128.561Z" fill="black"/>
<path fill-rule="evenodd" clip-rule="evenodd" d="M193.109 140.555C201.456 143.61 209.375 147.553 214.112 150.25L214.46 149.636C209.694 146.923 201.74 142.963 193.351 139.892C184.978 136.827 176.109 134.623 169.542 135.482L169.633 136.182C176.018 135.347 184.747 137.494 193.109 140.555Z" fill="black"/>
<path fill-rule="evenodd" clip-rule="evenodd" d="M206.428 159.843C207.865 160.677 209.262 161.487 210.592 162.244L210.94 161.63C209.62 160.879 208.23 160.073 206.796 159.241C203.083 157.088 199.081 154.767 195.265 152.8C192.619 151.436 190.054 150.238 187.724 149.379C185.402 148.523 183.288 147.995 181.554 147.995V148.7C183.164 148.7 185.185 149.195 187.482 150.042C189.772 150.885 192.31 152.07 194.943 153.427C198.742 155.385 202.72 157.693 206.428 159.843Z" fill="black"/>
<path d="M221.028 165.281C210.047 129.439 227.658 152.816 236.809 168.456L234.345 193.855L216.101 180.45L221.028 165.281Z" fill="#F8B199" stroke="black"/>
<path d="M299.456 215.375C317.759 156.814 345.208 128.945 355.062 126.123C381.814 144.467 364.215 172.266 347.321 245.361C326.204 336.729 223.785 198.089 219.914 190.328C217.127 184.74 232.936 161.074 237.159 164.575C256.165 180.332 292.698 210.295 299.456 215.375Z" fill="#105DD0"/>
<path d="M354.01 125.77C335.708 138.117 316.908 162.6 299.451 215.375C292.693 210.295 256.161 180.332 237.155 164.575C232.932 161.074 217.123 184.74 219.909 190.328C222.807 196.137 280.905 275.256 318.806 276.393L354.01 125.77ZM318.806 276.393C331.546 276.775 342.004 268.347 347.317 245.361L318.806 276.393Z" stroke="black"/>
<path d="M439.536 200.392V312.639C439.536 315.281 437.41 317.412 434.774 317.412H300.935C298.299 317.412 296.173 315.281 296.173 312.639V200.392C296.173 197.75 298.299 195.619 300.935 195.619H434.774C437.41 195.705 439.536 197.75 439.536 200.392Z" fill="#CED8E2"/>
<path d="M439.532 312.639V200.392C439.532 197.75 437.407 195.705 434.77 195.619H367.851V317.412H434.77C437.407 317.412 439.532 315.281 439.532 312.639Z" fill="#AFBCC8"/>
<path d="M413.456 208.702V195.619H398.356V208.702H413.456Z" fill="#C4573A"/>
<path d="M437.162 203.222V309.615C437.162 311.927 435.314 313.786 433.026 313.786H370.299V199.051H433.02C435.325 199.128 437.162 200.922 437.162 203.222Z" stroke="black"/>
<path d="M302.722 212.038H329.763C331.318 212.038 332.579 213.301 332.579 214.86V232.117C332.579 233.675 331.318 234.939 329.763 234.939H302.722C301.167 234.939 299.907 233.675 299.907 232.117V214.86C299.907 213.301 301.167 212.038 302.722 212.038Z" fill="white"/>
<path d="M304.301 216.647H328.19C328.567 216.647 328.872 216.953 328.872 217.331C328.872 217.709 328.567 218.015 328.19 218.015H304.301C303.925 218.015 303.619 217.709 303.619 217.331C303.619 216.953 303.925 216.647 304.301 216.647Z" fill="black"/>
<path d="M304.301 220.752H328.19C328.567 220.752 328.872 221.058 328.872 221.436C328.872 221.814 328.567 222.12 328.19 222.12H304.301C303.925 222.12 303.619 221.814 303.619 221.436C303.619 221.058 303.925 220.752 304.301 220.752Z" fill="black"/>
<path d="M304.301 224.856H328.19C328.567 224.856 328.872 225.162 328.872 225.54C328.872 225.918 328.567 226.224 328.19 226.224H304.301C303.925 226.224 303.619 225.918 303.619 225.54C303.619 225.162 303.925 224.856 304.301 224.856Z" fill="black"/>
<path d="M304.301 228.961H328.19C328.567 228.961 328.872 229.267 328.872 229.645C328.872 230.023 328.567 230.329 328.19 230.329H304.301C303.925 230.329 303.619 230.023 303.619 229.645C303.619 229.267 303.925 228.961 304.301 228.961Z" fill="black"/>
<path d="M382.478 78.7683L382.457 122.39C387.087 135.789 411.068 122.564 418.146 111.785L414.926 61.8555L382.478 78.7683Z" fill="#F8B199"/>
<path d="M382.485 78.7711V100.863L405.196 66.9334L382.485 78.7711Z" fill="black"/>
<path d="M429.401 27.757L365.564 18.6667C365.608 17.4934 357.59 80.0263 379.44 86.5173C387.484 88.9063 405.501 79.979 417.558 74.0651C429.615 68.1505 428.983 52.9183 426.606 49.222L429.401 27.757Z" fill="#F8B199"/>
<path d="M417.812 57.5778C422.754 52.6404 419.892 45.2526 418.104 43.8344C417.774 43.6728 416.935 43.4189 416.212 43.6975C418.376 45.786 421.5 51.6992 416.692 58.6467C417.081 58.2911 417.456 57.9348 417.812 57.5778Z" fill="#FFAAA9"/>
<path d="M417.964 52.9092C413.907 51.98 413.178 48.2638 415.46 47.9731M415.402 56.8299C416.392 56.3459 417.655 55.0802 417.964 52.9092L415.402 56.8299ZM416.919 47.7876C418.133 48.7302 418.212 51.1714 417.964 52.9092L416.919 47.7876Z" stroke="#FFAAA9"/>
<path d="M562.887 104.685C566.032 102.571 570.412 93.2631 567.016 85.7786M431.622 35.7939C440.94 48.836 462.341 80.1342 494.475 75.8543L431.622 35.7939ZM393.435 39.2673C392.929 56.4108 400.853 89.3699 439.016 72.4741L393.435 39.2673ZM359.487 10.7624C360.692 12.0303 367.377 15.177 371.781 14.6105L359.487 10.7624ZM605.342 100.792C608.945 86.5597 605.837 58.4378 564.58 59.8087C544.686 60.522 521.041 58.0293 513.41 57.1431L605.342 100.792Z" stroke="#444577"/>
<path d="M366.623 16.5366C357.098 31.3715 378.865 44.6062 382.464 35.4792C388.957 19.0081 391.184 34.6509 392.824 42.1629C394.543 44.6577 401.568 53.6859 405.969 50.9801C425.508 38.9675 426.622 54.2772 413.075 62.022C410.422 63.5389 411.55 75.002 415.821 74.693C423.896 74.1095 433.228 55.8132 431.618 35.7946C440.937 48.8367 473.057 76.8633 493.109 76.9507C500.382 79.442 510.434 80.9195 515.954 80.8948C540.482 80.784 557.793 83.6471 568.074 88.9874C575.917 93.0606 579.669 98.5759 579.414 105.312C587.038 98.2647 588.856 74.4877 544.129 65.4545C532.597 63.1255 523.761 60.6547 516.816 58.0434C496.825 50.5265 492.508 41.844 484.687 32.0192C460.491 -9.25288 451.134 -5.02191 430.203 13.4449C430.41 7.95006 417.898 -1.6963 408.229 10.7765C403.543 -2.31471 379.605 0.834446 368.604 13.859C367.886 14.7099 367.222 15.6032 366.623 16.5366Z" fill="black"/>
<path d="M431.938 36.8833C433.251 30.5898 435.389 17.5526 430.697 12.7789C426.613 16.5733 430.175 36.098 431.938 36.8833Z" fill="#595A97"/>
<path d="M371.606 316.973C379.701 343.079 422.287 321.912 425.103 319.443C432.259 315.679 440.941 306.813 418.416 301.451C390.259 294.749 370.198 312.387 385.684 309.565C409.265 305.685 393.779 316.973 371.606 316.973Z" fill="#F8B199" stroke="black"/>
<path d="M431.145 122.595C412.28 138.681 467.573 226.781 486.344 261.588C462.763 272.054 414.827 293.761 411.73 296.866C408.633 299.97 417.713 327.873 426.512 327.204C457.484 324.852 524.778 309.989 529.283 280.638C529.283 151.522 454.726 102.487 431.145 122.595Z" fill="#105DD0"/>
<path d="M445.477 186.799C459.19 214.697 477.149 244.537 486.344 261.588C462.763 272.053 414.827 293.761 411.73 296.865C408.633 299.97 417.713 327.872 426.512 327.204C457.484 324.852 524.778 309.988 529.283 280.638C529.283 178.609 482.728 126.586 451.559 119.17" stroke="black"/>
</g>
<defs>
<clipPath id="clip0_4_115">
<rect width="606" height="460" fill="white"/>
</clipPath>
</defs>
</svg>
