<svg width="24" height="24" viewBox="0 0 24 24" fill="none" xmlns="http://www.w3.org/2000/svg">
<path d="M14.97 22.75H8.96997C3.53997 22.75 1.21997 20.43 1.21997 15V9C1.21997 3.57 3.53997 1.25 8.96997 1.25H14.97C20.4 1.25 22.72 3.57 22.72 9V15C22.72 20.43 20.41 22.75 14.97 22.75ZM8.96997 2.75C4.35997 2.75 2.71997 4.39 2.71997 9V15C2.71997 19.61 4.35997 21.25 8.96997 21.25H14.97C19.58 21.25 21.22 19.61 21.22 15V9C21.22 4.39 19.58 2.75 14.97 2.75H8.96997Z" fill="#292D32"/>
<path d="M11.45 18.06C11.21 18.06 10.63 17.97 10.29 17.1L9.14999 14.22C8.98999 13.81 8.41999 13.43 7.98999 13.43L1.98999 13.45C1.57999 13.45 1.23999 13.12 1.23999 12.7C1.23999 12.29 1.56999 11.95 1.98999 11.95L7.98999 11.93H7.99999C9.04999 11.93 10.17 12.69 10.56 13.67L11.47 15.97L13.53 10.75C13.84 9.97001 14.39 9.86001 14.62 9.84001C14.85 9.83001 15.41 9.88001 15.8 10.62L16.84 12.59C17.02 12.93 17.56 13.26 17.95 13.26H22.01C22.42 13.26 22.76 13.6 22.76 14.01C22.76 14.42 22.42 14.76 22.01 14.76H17.95C17 14.76 15.96 14.13 15.52 13.29L14.74 11.81L12.64 17.1C12.27 17.96 11.68 18.06 11.45 18.06Z" fill="#292D32"/>
</svg>
